HIERARCHY
ROOT Hips
{
 OFFSET 0.000000 0.000000 0.000000
 CHANNELS 6 Xposition Yposition Zposition Yrotation Xrotation Zrotation
 JOINT Chest
 {
  OFFSET 0.000000 9.581000 -0.001100
  CHANNELS 3 Yrotation Xrotation Zrotation
  JOINT Chest2
  {
   OFFSET 0.000000 9.561100 0.002200
   CHANNELS 3 Yrotation Xrotation Zrotation
   JOINT Chest3
   {
    OFFSET 0.000000 9.521100 0.000000
    CHANNELS 3 Yrotation Xrotation Zrotation
    JOINT Chest4
    {
     OFFSET 0.000000 9.511400 0.000000
     CHANNELS 3 Yrotation Xrotation Zrotation
     JOINT Neck
     {
      OFFSET 0.000000 14.375100 0.000000
      CHANNELS 3 Yrotation Xrotation Zrotation
      JOINT Head
      {
       OFFSET 0.000000 8.901200 0.004600
       CHANNELS 3 Yrotation Xrotation Zrotation
       End Site
       {
        OFFSET 0.000000 16.962200 0.002400
       }
      }
     }
     JOINT RightCollar
     {
      OFFSET -2.920100 9.518800 0.000000
      CHANNELS 3 Yrotation Xrotation Zrotation
      JOINT RightShoulder
      {
       OFFSET -13.664500 0.000000 0.000000
       CHANNELS 3 Yrotation Xrotation Zrotation
       JOINT RightElbow
       {
        OFFSET 0.000000 -29.999200 0.000000
        CHANNELS 3 Yrotation Xrotation Zrotation
        JOINT RightWrist
        {
         OFFSET 0.000000 -24.253600 0.000000
         CHANNELS 3 Yrotation Xrotation Zrotation
         End Site
         {
          OFFSET 0.000000 -17.918900 0.000000
         }
        }
       }
      }
     }
     JOINT LeftCollar
     {
      OFFSET 2.920100 9.518800 0.000000
      CHANNELS 3 Yrotation Xrotation Zrotation
      JOINT LeftShoulder
      {
       OFFSET 13.664500 0.000000 0.000000
       CHANNELS 3 Yrotation Xrotation Zrotation
       JOINT LeftElbow
       {
        OFFSET 0.000000 -29.999200 0.000000
        CHANNELS 3 Yrotation Xrotation Zrotation
        JOINT LeftWrist
        {
         OFFSET 0.000000 -24.253600 0.000000
         CHANNELS 3 Yrotation Xrotation Zrotation
         End Site
         {
          OFFSET 0.000000 -17.918900 0.000000
         }
        }
       }
      }
     }
    }
   }
  }
 }
 JOINT RightHip
 {
  OFFSET -7.797300 0.005300 0.000500
  CHANNELS 3 Yrotation Xrotation Zrotation
  JOINT RightKnee
  {
   OFFSET 0.000000 -40.663400 -0.000500
   CHANNELS 3 Yrotation Xrotation Zrotation
   JOINT RightAnkle
   {
    OFFSET 0.000000 -39.523700 -0.000900
    CHANNELS 3 Yrotation Xrotation Zrotation
    JOINT RightToe
    {
     OFFSET 0.000000 -6.418000 14.485300
     CHANNELS 3 Yrotation Xrotation Zrotation
     End Site
     {
      OFFSET 0.000000 -1.465200 6.326400
     }
    }
   }
  }
 }
 JOINT LeftHip
 {
  OFFSET 7.797300 0.005300 0.000500
  CHANNELS 3 Yrotation Xrotation Zrotation
  JOINT LeftKnee
  {
   OFFSET 0.000000 -40.663400 -0.000500
   CHANNELS 3 Yrotation Xrotation Zrotation
   JOINT LeftAnkle
   {
    OFFSET 0.000000 -39.523700 -0.000900
    CHANNELS 3 Yrotation Xrotation Zrotation
    JOINT LeftToe
    {
     OFFSET 0.000000 -6.418000 14.485300
     CHANNELS 3 Yrotation Xrotation Zrotation
     End Site
     {
      OFFSET 0.000000 -1.465200 6.326400
     }
    }
   }
  }
 }
}
MOTION
Frames: 6
Frame Time: 0.008333
0.000000 86.422400 0.000000 0.000000 -5.767877 0.000000 0.000000 11.653817 0.000000 0.000000 -5.885947 0.000000 0.000000 -0.000000 0.000000 0.000000 -0.000000 0.000000 0.000000 12.528835 0.000000 0.000000 0.711642 0.000000 0.000000 -0.000000 0.000000 0.000000 0.000000 -90.000000 0.000000 -2.309062 0.000000 0.000000 2.309062 0.000000 0.000000 -0.000000 0.000000 0.000000 -0.000000 90.000000 0.000000 -2.309062 0.000000 0.000000 2.309062 0.000000 0.000000 8.520406 0.000000 0.000000 1.905762 0.000000 -0.000000 -4.658285 0.000000 0.000000 -0.000000 0.000000 0.000000 8.520406 0.000000 0.000000 1.905762 0.000000 -0.000000 -4.658285 0.000000 0.000000 -0.000000 0.000000
-1.957530 126.240628 24.144967 -169.479460 -24.342695 -2.306182 -4.543583 22.305630 0.796693 -0.631936 3.187863 0.203644 -1.079390 5.126441 0.356570 -3.775441 18.835284 0.773378 0.809559 5.979289 -4.138681 1.950173 -19.520855 -4.883666 2.109400 -6.714466 1.505535 6.827124 -24.488393 -6.536799 -140.071694 -44.067900 169.302587 -13.809413 -9.513809 -19.634930 -12.499045 -5.554839 -2.804980 -9.417941 -30.585932 13.965205 122.372233 -46.942612 -150.466643 -3.499639 -28.091612 41.898192 -8.788016 -62.642850 5.417129 -44.556362 68.742322 -46.563735 26.972665 32.723597 20.600570 0.000335 0.001923 0.000148 -1.356783 -51.580049 -6.623530 83.465103 75.844447 77.440537 -14.649450 -10.104305 -2.404993 0.002104 0.004576 0.000932
-1.953863 126.241901 24.145522 -169.491315 -24.367964 -2.322089 -4.502707 22.335880 0.807420 -0.626382 3.206613 0.207771 -1.071257 5.124925 0.352239 -3.724248 18.888488 0.773419 0.749738 5.897401 -4.100641 1.939467 -19.569182 -4.893494 2.166637 -6.773647 1.546402 6.668368 -24.890134 -6.532601 -141.730646 -44.486513 170.705228 -13.412585 -10.149351 -20.009726 -12.671971 -5.643671 -2.790705 -9.474150 -31.048687 14.083691 122.213840 -47.113165 -150.437715 -4.038724 -28.671411 42.754171 -8.738690 -62.605818 5.398865 -44.540590 68.730579 -46.521507 27.048136 32.718691 20.612421 0.011893 0.010480 0.005271 -1.363621 -51.559397 -6.596365 83.470619 75.847374 77.441904 -14.640461 -10.101320 -2.396570 -0.001470 0.003672 -0.000651
-1.952012 126.244247 24.144594 -169.520905 -24.410214 -2.321470 -4.449204 22.390598 0.812850 -0.633089 3.208137 0.213583 -1.020500 5.203057 0.333589 -3.713259 18.880442 0.797665 0.714782 5.793591 -4.107414 1.918368 -19.688814 -4.909159 2.239884 -6.828174 1.579421 6.470022 -25.290951 -6.471850 -143.501321 -45.044737 172.185576 -12.984655 -10.864784 -20.321099 -12.824938 -5.742197 -2.791426 -9.651171 -31.458681 14.176135 122.334463 -47.495158 -150.523462 -4.624428 -29.219926 43.573534 -8.703619 -62.559895 5.398814 -44.529132 68.721091 -46.503120 27.055995 32.724056 20.612553 0.010853 0.009868 0.004809 -1.345605 -51.522726 -6.582512 83.482298 75.843805 77.451029 -14.657224 -10.093527 -2.390050 -0.007191 -0.000590 -0.003186
-1.950388 126.245037 24.147669 -169.532757 -24.429326 -2.322193 -4.393733 22.454059 0.817267 -0.657891 3.181083 0.224185 -1.016428 5.214269 0.335938 -3.664555 18.942689 0.794526 0.685200 5.693873 -4.117724 1.900869 -19.807437 -4.924585 2.315153 -6.872872 1.615676 6.356265 -25.662420 -6.404458 -145.452254 -45.723569 173.735810 -12.508097 -11.622701 -20.611451 -12.977625 -5.846708 -2.799953 -10.005988 -31.782873 14.277019 122.797333 -48.102199 -150.736131 -5.240075 -29.694395 44.368116 -8.681783 -62.537060 5.395018 -44.500483 68.709837 -46.466118 27.052400 32.737451 20.608271 0.011587 0.008496 0.005135 -1.341154 -51.507836 -6.573645 83.477754 75.821072 77.440200 -14.682850 -10.084676 -2.393725 -0.009717 -0.002877 -0.004305
-1.948121 126.246073 24.150602 -169.549251 -24.450595 -2.324470 -4.368590 22.482396 0.826466 -0.637047 3.215564 0.220962 -1.025672 5.203391 0.339913 -3.647027 18.957489 0.795587 0.687841 5.652477 -4.137876 1.870897 -19.887936 -4.925918 2.420568 -6.847293 1.640683 6.425991 -25.989593 -6.380890 -147.561169 -46.501845 175.288696 -11.970967 -12.359846 -20.922086 -13.097799 -5.904022 -2.838363 -10.504648 -32.022642 14.391511 123.568587 -48.937791 -151.061516 -5.862983 -30.069684 45.127310 -8.644262 -62.504930 5.381508 -44.452336 68.671155 -46.406986 27.090743 32.765282 20.628769 0.006672 0.000731 0.002956 -1.337632 -51.486529 -6.557473 83.467136 75.813666 77.425932 -14.682760 -10.084005 -2.400134 -0.006771 -0.001702 -0.003000
